%TF.GenerationSoftware,KiCad,Pcbnew,8.0.6*%
%TF.CreationDate,2024-12-13T22:42:48+00:00*%
%TF.ProjectId,StepperAdapterMount,53746570-7065-4724-9164-61707465724d,RevA*%
%TF.SameCoordinates,Original*%
%TF.FileFunction,Other,User*%
%FSLAX46Y46*%
G04 Gerber Fmt 4.6, Leading zero omitted, Abs format (unit mm)*
G04 Created by KiCad (PCBNEW 8.0.6) date 2024-12-13 22:42:48*
%MOMM*%
%LPD*%
G01*
G04 APERTURE LIST*
%ADD10C,0.100000*%
%ADD11C,0.150000*%
G04 APERTURE END LIST*
D10*
X38335000Y-197200000D02*
X65005000Y-197200000D01*
X38335000Y-217520000D02*
X65005000Y-217520000D01*
X39434238Y-218975695D02*
X50955699Y-223584280D01*
X39434238Y-218975695D02*
X40697962Y-218849590D01*
X39434238Y-218975695D02*
X40262379Y-219938546D01*
X39434238Y-218975695D02*
X50955699Y-223584280D01*
X39434238Y-218975695D02*
X40697962Y-218849590D01*
X39434238Y-218975695D02*
X40262379Y-219938546D01*
X63898071Y-219590175D02*
X52395000Y-223616250D01*
X63898071Y-219590175D02*
X63028535Y-220515814D01*
X63898071Y-219590175D02*
X62641087Y-219408818D01*
X63898071Y-219590175D02*
X52395000Y-223616250D01*
X63898071Y-219590175D02*
X63028535Y-220515814D01*
X63898071Y-219590175D02*
X62641087Y-219408818D01*
X51670000Y-219290000D02*
X51670000Y-224576750D01*
X51670000Y-219290000D02*
X52256421Y-220416504D01*
X51670000Y-219290000D02*
X51083579Y-220416504D01*
X51670000Y-219290000D02*
X51670000Y-224576750D01*
X51670000Y-219290000D02*
X52256421Y-220416504D01*
X51670000Y-219290000D02*
X51083579Y-220416504D01*
D11*
X49323922Y-224644819D02*
X49657255Y-225644819D01*
X49657255Y-225644819D02*
X49990588Y-224644819D01*
X50323922Y-225263866D02*
X51085827Y-225263866D01*
X51514398Y-225597200D02*
X51657255Y-225644819D01*
X51657255Y-225644819D02*
X51895350Y-225644819D01*
X51895350Y-225644819D02*
X51990588Y-225597200D01*
X51990588Y-225597200D02*
X52038207Y-225549580D01*
X52038207Y-225549580D02*
X52085826Y-225454342D01*
X52085826Y-225454342D02*
X52085826Y-225359104D01*
X52085826Y-225359104D02*
X52038207Y-225263866D01*
X52038207Y-225263866D02*
X51990588Y-225216247D01*
X51990588Y-225216247D02*
X51895350Y-225168628D01*
X51895350Y-225168628D02*
X51704874Y-225121009D01*
X51704874Y-225121009D02*
X51609636Y-225073390D01*
X51609636Y-225073390D02*
X51562017Y-225025771D01*
X51562017Y-225025771D02*
X51514398Y-224930533D01*
X51514398Y-224930533D02*
X51514398Y-224835295D01*
X51514398Y-224835295D02*
X51562017Y-224740057D01*
X51562017Y-224740057D02*
X51609636Y-224692438D01*
X51609636Y-224692438D02*
X51704874Y-224644819D01*
X51704874Y-224644819D02*
X51942969Y-224644819D01*
X51942969Y-224644819D02*
X52085826Y-224692438D01*
X52942969Y-225597200D02*
X52847731Y-225644819D01*
X52847731Y-225644819D02*
X52657255Y-225644819D01*
X52657255Y-225644819D02*
X52562017Y-225597200D01*
X52562017Y-225597200D02*
X52514398Y-225549580D01*
X52514398Y-225549580D02*
X52466779Y-225454342D01*
X52466779Y-225454342D02*
X52466779Y-225168628D01*
X52466779Y-225168628D02*
X52514398Y-225073390D01*
X52514398Y-225073390D02*
X52562017Y-225025771D01*
X52562017Y-225025771D02*
X52657255Y-224978152D01*
X52657255Y-224978152D02*
X52847731Y-224978152D01*
X52847731Y-224978152D02*
X52942969Y-225025771D01*
X53514398Y-225644819D02*
X53419160Y-225597200D01*
X53419160Y-225597200D02*
X53371541Y-225549580D01*
X53371541Y-225549580D02*
X53323922Y-225454342D01*
X53323922Y-225454342D02*
X53323922Y-225168628D01*
X53323922Y-225168628D02*
X53371541Y-225073390D01*
X53371541Y-225073390D02*
X53419160Y-225025771D01*
X53419160Y-225025771D02*
X53514398Y-224978152D01*
X53514398Y-224978152D02*
X53657255Y-224978152D01*
X53657255Y-224978152D02*
X53752493Y-225025771D01*
X53752493Y-225025771D02*
X53800112Y-225073390D01*
X53800112Y-225073390D02*
X53847731Y-225168628D01*
X53847731Y-225168628D02*
X53847731Y-225454342D01*
X53847731Y-225454342D02*
X53800112Y-225549580D01*
X53800112Y-225549580D02*
X53752493Y-225597200D01*
X53752493Y-225597200D02*
X53657255Y-225644819D01*
X53657255Y-225644819D02*
X53514398Y-225644819D01*
X54276303Y-225644819D02*
X54276303Y-224978152D01*
X54276303Y-225168628D02*
X54323922Y-225073390D01*
X54323922Y-225073390D02*
X54371541Y-225025771D01*
X54371541Y-225025771D02*
X54466779Y-224978152D01*
X54466779Y-224978152D02*
X54562017Y-224978152D01*
X55276303Y-225597200D02*
X55181065Y-225644819D01*
X55181065Y-225644819D02*
X54990589Y-225644819D01*
X54990589Y-225644819D02*
X54895351Y-225597200D01*
X54895351Y-225597200D02*
X54847732Y-225501961D01*
X54847732Y-225501961D02*
X54847732Y-225121009D01*
X54847732Y-225121009D02*
X54895351Y-225025771D01*
X54895351Y-225025771D02*
X54990589Y-224978152D01*
X54990589Y-224978152D02*
X55181065Y-224978152D01*
X55181065Y-224978152D02*
X55276303Y-225025771D01*
X55276303Y-225025771D02*
X55323922Y-225121009D01*
X55323922Y-225121009D02*
X55323922Y-225216247D01*
X55323922Y-225216247D02*
X54847732Y-225311485D01*
D10*
X38970000Y-195930000D02*
X38970000Y-218790000D01*
X64370000Y-195930000D02*
X64370000Y-218790000D01*
X51670000Y-195930000D02*
X51670000Y-218790000D01*
M02*
