M48
; DRILL file {KiCad 8.0.6} date 2024-12-13T22:24:23+0000
; FORMAT={-:-/ absolute / inch / decimal}
; #@! TF.CreationDate,2024-12-13T22:24:23+00:00
; #@! TF.GenerationSoftware,Kicad,Pcbnew,8.0.6
; #@! TF.FileFunction,Plated,1,2,PTH
FMAT,2
INCH
; #@! TA.AperFunction,Plated,PTH,ComponentDrill
T1C0.0354
; #@! TA.AperFunction,Plated,PTH,ComponentDrill
T2C0.0394
%
G90
G05
T1
X1.7053Y-8.1362
X1.7053Y-8.2465
X1.7132Y-8.0811
X1.7132Y-8.1913
T2
X1.6343Y-7.8638
X1.6343Y-8.4638
X1.7343Y-7.8638
X1.7343Y-8.4638
X1.8343Y-7.8638
X1.8343Y-8.4638
X1.9343Y-7.8638
X1.9343Y-8.4638
X2.1343Y-7.8638
X2.1343Y-8.4638
X2.2343Y-7.8638
X2.2343Y-8.4638
X2.3343Y-7.8638
X2.3343Y-8.1264
X2.3343Y-8.2051
X2.3343Y-8.4638
X2.4327Y-8.1264
X2.4327Y-8.2051
X2.4343Y-7.8638
X2.4343Y-8.4638
M30
