%TF.GenerationSoftware,KiCad,Pcbnew,8.0.6*%
%TF.CreationDate,2024-12-13T22:42:47+00:00*%
%TF.ProjectId,StepperAdapterMount,53746570-7065-4724-9164-61707465724d,RevA*%
%TF.SameCoordinates,Original*%
%TF.FileFunction,Copper,L1,Top*%
%TF.FilePolarity,Positive*%
%FSLAX46Y46*%
G04 Gerber Fmt 4.6, Leading zero omitted, Abs format (unit mm)*
G04 Created by KiCad (PCBNEW 8.0.6) date 2024-12-13 22:42:47*
%MOMM*%
%LPD*%
G01*
G04 APERTURE LIST*
%TA.AperFunction,ComponentPad*%
%ADD10O,1.700000X1.700000*%
%TD*%
%TA.AperFunction,ComponentPad*%
%ADD11R,1.700000X1.700000*%
%TD*%
%TA.AperFunction,ComponentPad*%
%ADD12C,1.300000*%
%TD*%
%TA.AperFunction,ComponentPad*%
%ADD13C,1.400000*%
%TD*%
%TA.AperFunction,Conductor*%
%ADD14C,0.300000*%
%TD*%
G04 APERTURE END LIST*
D10*
%TO.P,J1,4,Pin_4*%
%TO.N,/B1+*%
X54210000Y-199740000D03*
%TO.P,J1,3,Pin_3*%
%TO.N,unconnected-(J1-Pin_3-Pad3)*%
X56750000Y-199740000D03*
%TO.P,J1,2,Pin_2*%
%TO.N,unconnected-(J1-Pin_2-Pad2)*%
X59290000Y-199740000D03*
D11*
%TO.P,J1,1,Pin_1*%
%TO.N,/A1+*%
X61830000Y-199740000D03*
%TD*%
D12*
%TO.P,M2,1,A+*%
%TO.N,/A2+*%
X43515000Y-205260000D03*
%TO.P,M2,2,A-*%
%TO.N,/A2-*%
X43515000Y-208060000D03*
%TO.P,M2,3,B+*%
%TO.N,/B2+*%
X43315000Y-206660000D03*
%TO.P,M2,4,B-*%
%TO.N,/B2-*%
X43315000Y-209460000D03*
%TD*%
D11*
%TO.P,J4,1,Pin_1*%
%TO.N,/A2-*%
X49130000Y-214980000D03*
D10*
%TO.P,J4,2,Pin_2*%
%TO.N,unconnected-(J4-Pin_2-Pad2)*%
X46590000Y-214980000D03*
%TO.P,J4,3,Pin_3*%
%TO.N,unconnected-(J4-Pin_3-Pad3)*%
X44050000Y-214980000D03*
%TO.P,J4,4,Pin_4*%
%TO.N,/B2-*%
X41510000Y-214980000D03*
%TD*%
D11*
%TO.P,J3,1,Pin_1*%
%TO.N,/A2+*%
X49130000Y-199740000D03*
D10*
%TO.P,J3,2,Pin_2*%
%TO.N,unconnected-(J3-Pin_2-Pad2)*%
X46590000Y-199740000D03*
%TO.P,J3,3,Pin_3*%
%TO.N,unconnected-(J3-Pin_3-Pad3)*%
X44050000Y-199740000D03*
%TO.P,J3,4,Pin_4*%
%TO.N,/B2+*%
X41510000Y-199740000D03*
%TD*%
D11*
%TO.P,J2,1,Pin_1*%
%TO.N,/A1-*%
X61830000Y-214980000D03*
D10*
%TO.P,J2,2,Pin_2*%
%TO.N,unconnected-(J2-Pin_2-Pad2)*%
X59290000Y-214980000D03*
%TO.P,J2,3,Pin_3*%
%TO.N,unconnected-(J2-Pin_3-Pad3)*%
X56750000Y-214980000D03*
%TO.P,J2,4,Pin_4*%
%TO.N,/B1-*%
X54210000Y-214980000D03*
%TD*%
D13*
%TO.P,M1,1,A+*%
%TO.N,/A1+*%
X61790000Y-206410000D03*
%TO.P,M1,2,A-*%
%TO.N,/A1-*%
X61790000Y-208410000D03*
%TO.P,M1,3,B+*%
%TO.N,/B1+*%
X59290000Y-206410000D03*
%TO.P,M1,4,B-*%
%TO.N,/B1-*%
X59290000Y-208410000D03*
%TD*%
D14*
%TO.N,/B1+*%
X56435000Y-206410000D02*
X59290000Y-206410000D01*
X54210000Y-204185000D02*
X56435000Y-206410000D01*
X54210000Y-199740000D02*
X54210000Y-204185000D01*
%TO.N,/B1-*%
X54210000Y-210535000D02*
X56335000Y-208410000D01*
X54210000Y-214980000D02*
X54210000Y-210535000D01*
X56335000Y-208410000D02*
X59290000Y-208410000D01*
%TO.N,/A1-*%
X61790000Y-214940000D02*
X61830000Y-214980000D01*
X61790000Y-208410000D02*
X61790000Y-214940000D01*
%TO.N,/A1+*%
X61790000Y-199780000D02*
X61830000Y-199740000D01*
X61790000Y-206410000D02*
X61790000Y-199780000D01*
%TO.N,/A2-*%
X49130000Y-210535000D02*
X49130000Y-214980000D01*
X46655000Y-208060000D02*
X49130000Y-210535000D01*
X43515000Y-208060000D02*
X46655000Y-208060000D01*
%TO.N,/B2-*%
X41510000Y-211170000D02*
X41510000Y-214980000D01*
X43220000Y-209460000D02*
X41510000Y-211170000D01*
X43315000Y-209460000D02*
X43220000Y-209460000D01*
%TO.N,/A2+*%
X49130000Y-202915000D02*
X49130000Y-199740000D01*
X46785000Y-205260000D02*
X49130000Y-202915000D01*
X43515000Y-205260000D02*
X46785000Y-205260000D01*
%TO.N,/B2+*%
X41510000Y-199740000D02*
X41510000Y-204855000D01*
X41510000Y-204855000D02*
X43315000Y-206660000D01*
%TD*%
M02*
