M48
; DRILL file {KiCad 8.0.6} date 2024-12-16T09:55:58+0000
; FORMAT={-:-/ absolute / metric / decimal}
; #@! TF.CreationDate,2024-12-16T09:55:58+00:00
; #@! TF.GenerationSoftware,Kicad,Pcbnew,8.0.6
; #@! TF.FileFunction,MixedPlating,1,2
FMAT,2
METRIC
; #@! TA.AperFunction,Plated,PTH,ComponentDrill
T1C0.800
; #@! TA.AperFunction,Plated,PTH,ComponentDrill
T2C1.000
%
G90
G05
T1
X43.315Y-206.66
X43.315Y-209.46
X43.515Y-205.26
X43.515Y-208.06
T2
X41.51Y-199.74
X41.51Y-214.98
X44.05Y-199.74
X44.05Y-214.98
X46.59Y-199.74
X46.59Y-214.98
X49.13Y-199.74
X49.13Y-214.98
X54.21Y-199.74
X54.21Y-214.98
X56.75Y-199.74
X56.75Y-214.98
X59.29Y-199.74
X59.29Y-206.41
X59.29Y-208.41
X59.29Y-214.98
X61.79Y-206.41
X61.79Y-208.41
X61.83Y-199.74
X61.83Y-214.98
M30
