%TF.GenerationSoftware,KiCad,Pcbnew,8.0.6*%
%TF.CreationDate,2024-12-16T09:55:59+00:00*%
%TF.ProjectId,StepperAdapterMount,53746570-7065-4724-9164-61707465724d,RevA*%
%TF.SameCoordinates,Original*%
%TF.FileFunction,Drillmap*%
%TF.FilePolarity,Positive*%
%FSLAX45Y45*%
G04 Gerber Fmt 4.5, Leading zero omitted, Abs format (unit mm)*
G04 Created by KiCad (PCBNEW 8.0.6) date 2024-12-16 09:55:59*
%MOMM*%
%LPD*%
G01*
G04 APERTURE LIST*
%ADD10C,0.050000*%
%ADD11C,0.200000*%
%ADD12C,0.100000*%
G04 APERTURE END LIST*
D10*
X3897000Y-19720000D02*
X6437000Y-19720000D01*
X6437000Y-21752000D01*
X3897000Y-21752000D01*
X3897000Y-19720000D01*
D11*
D12*
X4291500Y-20626000D02*
X4371500Y-20706000D01*
X4371500Y-20626000D02*
X4291500Y-20706000D01*
X4291500Y-20906000D02*
X4371500Y-20986000D01*
X4371500Y-20906000D02*
X4291500Y-20986000D01*
X4311500Y-20486000D02*
X4391500Y-20566000D01*
X4391500Y-20486000D02*
X4311500Y-20566000D01*
X4311500Y-20766000D02*
X4391500Y-20846000D01*
X4391500Y-20766000D02*
X4311500Y-20846000D01*
X4201000Y-19974000D02*
G75*
G02*
X4101000Y-19974000I-50000J0D01*
G01*
X4101000Y-19974000D02*
G75*
G02*
X4201000Y-19974000I50000J0D01*
G01*
X4201000Y-21498000D02*
G75*
G02*
X4101000Y-21498000I-50000J0D01*
G01*
X4101000Y-21498000D02*
G75*
G02*
X4201000Y-21498000I50000J0D01*
G01*
X4455000Y-19974000D02*
G75*
G02*
X4355000Y-19974000I-50000J0D01*
G01*
X4355000Y-19974000D02*
G75*
G02*
X4455000Y-19974000I50000J0D01*
G01*
X4455000Y-21498000D02*
G75*
G02*
X4355000Y-21498000I-50000J0D01*
G01*
X4355000Y-21498000D02*
G75*
G02*
X4455000Y-21498000I50000J0D01*
G01*
X4709000Y-19974000D02*
G75*
G02*
X4609000Y-19974000I-50000J0D01*
G01*
X4609000Y-19974000D02*
G75*
G02*
X4709000Y-19974000I50000J0D01*
G01*
X4709000Y-21498000D02*
G75*
G02*
X4609000Y-21498000I-50000J0D01*
G01*
X4609000Y-21498000D02*
G75*
G02*
X4709000Y-21498000I50000J0D01*
G01*
X4963000Y-19974000D02*
G75*
G02*
X4863000Y-19974000I-50000J0D01*
G01*
X4863000Y-19974000D02*
G75*
G02*
X4963000Y-19974000I50000J0D01*
G01*
X4963000Y-21498000D02*
G75*
G02*
X4863000Y-21498000I-50000J0D01*
G01*
X4863000Y-21498000D02*
G75*
G02*
X4963000Y-21498000I50000J0D01*
G01*
X5471000Y-19974000D02*
G75*
G02*
X5371000Y-19974000I-50000J0D01*
G01*
X5371000Y-19974000D02*
G75*
G02*
X5471000Y-19974000I50000J0D01*
G01*
X5471000Y-21498000D02*
G75*
G02*
X5371000Y-21498000I-50000J0D01*
G01*
X5371000Y-21498000D02*
G75*
G02*
X5471000Y-21498000I50000J0D01*
G01*
X5725000Y-19974000D02*
G75*
G02*
X5625000Y-19974000I-50000J0D01*
G01*
X5625000Y-19974000D02*
G75*
G02*
X5725000Y-19974000I50000J0D01*
G01*
X5725000Y-21498000D02*
G75*
G02*
X5625000Y-21498000I-50000J0D01*
G01*
X5625000Y-21498000D02*
G75*
G02*
X5725000Y-21498000I50000J0D01*
G01*
X5979000Y-19974000D02*
G75*
G02*
X5879000Y-19974000I-50000J0D01*
G01*
X5879000Y-19974000D02*
G75*
G02*
X5979000Y-19974000I50000J0D01*
G01*
X5979000Y-20641000D02*
G75*
G02*
X5879000Y-20641000I-50000J0D01*
G01*
X5879000Y-20641000D02*
G75*
G02*
X5979000Y-20641000I50000J0D01*
G01*
X5979000Y-20841000D02*
G75*
G02*
X5879000Y-20841000I-50000J0D01*
G01*
X5879000Y-20841000D02*
G75*
G02*
X5979000Y-20841000I50000J0D01*
G01*
X5979000Y-21498000D02*
G75*
G02*
X5879000Y-21498000I-50000J0D01*
G01*
X5879000Y-21498000D02*
G75*
G02*
X5979000Y-21498000I50000J0D01*
G01*
X6229000Y-20641000D02*
G75*
G02*
X6129000Y-20641000I-50000J0D01*
G01*
X6129000Y-20641000D02*
G75*
G02*
X6229000Y-20641000I50000J0D01*
G01*
X6229000Y-20841000D02*
G75*
G02*
X6129000Y-20841000I-50000J0D01*
G01*
X6129000Y-20841000D02*
G75*
G02*
X6229000Y-20841000I50000J0D01*
G01*
X6233000Y-19974000D02*
G75*
G02*
X6133000Y-19974000I-50000J0D01*
G01*
X6133000Y-19974000D02*
G75*
G02*
X6233000Y-19974000I50000J0D01*
G01*
X6233000Y-21498000D02*
G75*
G02*
X6133000Y-21498000I-50000J0D01*
G01*
X6133000Y-21498000D02*
G75*
G02*
X6233000Y-21498000I50000J0D01*
G01*
D11*
X4155277Y-22065984D02*
X4155277Y-21865984D01*
X4155277Y-21865984D02*
X4202896Y-21865984D01*
X4202896Y-21865984D02*
X4231467Y-21875508D01*
X4231467Y-21875508D02*
X4250515Y-21894555D01*
X4250515Y-21894555D02*
X4260039Y-21913603D01*
X4260039Y-21913603D02*
X4269563Y-21951698D01*
X4269563Y-21951698D02*
X4269563Y-21980270D01*
X4269563Y-21980270D02*
X4260039Y-22018365D01*
X4260039Y-22018365D02*
X4250515Y-22037412D01*
X4250515Y-22037412D02*
X4231467Y-22056460D01*
X4231467Y-22056460D02*
X4202896Y-22065984D01*
X4202896Y-22065984D02*
X4155277Y-22065984D01*
X4355277Y-22065984D02*
X4355277Y-21932650D01*
X4355277Y-21970746D02*
X4364801Y-21951698D01*
X4364801Y-21951698D02*
X4374324Y-21942174D01*
X4374324Y-21942174D02*
X4393372Y-21932650D01*
X4393372Y-21932650D02*
X4412420Y-21932650D01*
X4479086Y-22065984D02*
X4479086Y-21932650D01*
X4479086Y-21865984D02*
X4469563Y-21875508D01*
X4469563Y-21875508D02*
X4479086Y-21885031D01*
X4479086Y-21885031D02*
X4488610Y-21875508D01*
X4488610Y-21875508D02*
X4479086Y-21865984D01*
X4479086Y-21865984D02*
X4479086Y-21885031D01*
X4602896Y-22065984D02*
X4583848Y-22056460D01*
X4583848Y-22056460D02*
X4574324Y-22037412D01*
X4574324Y-22037412D02*
X4574324Y-21865984D01*
X4707658Y-22065984D02*
X4688610Y-22056460D01*
X4688610Y-22056460D02*
X4679086Y-22037412D01*
X4679086Y-22037412D02*
X4679086Y-21865984D01*
X4936229Y-22065984D02*
X4936229Y-21865984D01*
X4936229Y-21865984D02*
X5002896Y-22008841D01*
X5002896Y-22008841D02*
X5069563Y-21865984D01*
X5069563Y-21865984D02*
X5069563Y-22065984D01*
X5250515Y-22065984D02*
X5250515Y-21961222D01*
X5250515Y-21961222D02*
X5240991Y-21942174D01*
X5240991Y-21942174D02*
X5221944Y-21932650D01*
X5221944Y-21932650D02*
X5183848Y-21932650D01*
X5183848Y-21932650D02*
X5164801Y-21942174D01*
X5250515Y-22056460D02*
X5231467Y-22065984D01*
X5231467Y-22065984D02*
X5183848Y-22065984D01*
X5183848Y-22065984D02*
X5164801Y-22056460D01*
X5164801Y-22056460D02*
X5155277Y-22037412D01*
X5155277Y-22037412D02*
X5155277Y-22018365D01*
X5155277Y-22018365D02*
X5164801Y-21999317D01*
X5164801Y-21999317D02*
X5183848Y-21989793D01*
X5183848Y-21989793D02*
X5231467Y-21989793D01*
X5231467Y-21989793D02*
X5250515Y-21980270D01*
X5345753Y-21932650D02*
X5345753Y-22132650D01*
X5345753Y-21942174D02*
X5364801Y-21932650D01*
X5364801Y-21932650D02*
X5402896Y-21932650D01*
X5402896Y-21932650D02*
X5421944Y-21942174D01*
X5421944Y-21942174D02*
X5431467Y-21951698D01*
X5431467Y-21951698D02*
X5440991Y-21970746D01*
X5440991Y-21970746D02*
X5440991Y-22027889D01*
X5440991Y-22027889D02*
X5431467Y-22046936D01*
X5431467Y-22046936D02*
X5421944Y-22056460D01*
X5421944Y-22056460D02*
X5402896Y-22065984D01*
X5402896Y-22065984D02*
X5364801Y-22065984D01*
X5364801Y-22065984D02*
X5345753Y-22056460D01*
X5526705Y-22046936D02*
X5536229Y-22056460D01*
X5536229Y-22056460D02*
X5526705Y-22065984D01*
X5526705Y-22065984D02*
X5517182Y-22056460D01*
X5517182Y-22056460D02*
X5526705Y-22046936D01*
X5526705Y-22046936D02*
X5526705Y-22065984D01*
X5526705Y-21942174D02*
X5536229Y-21951698D01*
X5536229Y-21951698D02*
X5526705Y-21961222D01*
X5526705Y-21961222D02*
X5517182Y-21951698D01*
X5517182Y-21951698D02*
X5526705Y-21942174D01*
X5526705Y-21942174D02*
X5526705Y-21961222D01*
D12*
X3814500Y-22354500D02*
X3894500Y-22434500D01*
X3894500Y-22354500D02*
X3814500Y-22434500D01*
D11*
X4193372Y-22285984D02*
X4212420Y-22285984D01*
X4212420Y-22285984D02*
X4231467Y-22295508D01*
X4231467Y-22295508D02*
X4240991Y-22305031D01*
X4240991Y-22305031D02*
X4250515Y-22324079D01*
X4250515Y-22324079D02*
X4260039Y-22362174D01*
X4260039Y-22362174D02*
X4260039Y-22409793D01*
X4260039Y-22409793D02*
X4250515Y-22447888D01*
X4250515Y-22447888D02*
X4240991Y-22466936D01*
X4240991Y-22466936D02*
X4231467Y-22476460D01*
X4231467Y-22476460D02*
X4212420Y-22485984D01*
X4212420Y-22485984D02*
X4193372Y-22485984D01*
X4193372Y-22485984D02*
X4174324Y-22476460D01*
X4174324Y-22476460D02*
X4164801Y-22466936D01*
X4164801Y-22466936D02*
X4155277Y-22447888D01*
X4155277Y-22447888D02*
X4145753Y-22409793D01*
X4145753Y-22409793D02*
X4145753Y-22362174D01*
X4145753Y-22362174D02*
X4155277Y-22324079D01*
X4155277Y-22324079D02*
X4164801Y-22305031D01*
X4164801Y-22305031D02*
X4174324Y-22295508D01*
X4174324Y-22295508D02*
X4193372Y-22285984D01*
X4345753Y-22466936D02*
X4355277Y-22476460D01*
X4355277Y-22476460D02*
X4345753Y-22485984D01*
X4345753Y-22485984D02*
X4336229Y-22476460D01*
X4336229Y-22476460D02*
X4345753Y-22466936D01*
X4345753Y-22466936D02*
X4345753Y-22485984D01*
X4469563Y-22371698D02*
X4450515Y-22362174D01*
X4450515Y-22362174D02*
X4440991Y-22352650D01*
X4440991Y-22352650D02*
X4431467Y-22333603D01*
X4431467Y-22333603D02*
X4431467Y-22324079D01*
X4431467Y-22324079D02*
X4440991Y-22305031D01*
X4440991Y-22305031D02*
X4450515Y-22295508D01*
X4450515Y-22295508D02*
X4469563Y-22285984D01*
X4469563Y-22285984D02*
X4507658Y-22285984D01*
X4507658Y-22285984D02*
X4526705Y-22295508D01*
X4526705Y-22295508D02*
X4536229Y-22305031D01*
X4536229Y-22305031D02*
X4545753Y-22324079D01*
X4545753Y-22324079D02*
X4545753Y-22333603D01*
X4545753Y-22333603D02*
X4536229Y-22352650D01*
X4536229Y-22352650D02*
X4526705Y-22362174D01*
X4526705Y-22362174D02*
X4507658Y-22371698D01*
X4507658Y-22371698D02*
X4469563Y-22371698D01*
X4469563Y-22371698D02*
X4450515Y-22381222D01*
X4450515Y-22381222D02*
X4440991Y-22390746D01*
X4440991Y-22390746D02*
X4431467Y-22409793D01*
X4431467Y-22409793D02*
X4431467Y-22447888D01*
X4431467Y-22447888D02*
X4440991Y-22466936D01*
X4440991Y-22466936D02*
X4450515Y-22476460D01*
X4450515Y-22476460D02*
X4469563Y-22485984D01*
X4469563Y-22485984D02*
X4507658Y-22485984D01*
X4507658Y-22485984D02*
X4526705Y-22476460D01*
X4526705Y-22476460D02*
X4536229Y-22466936D01*
X4536229Y-22466936D02*
X4545753Y-22447888D01*
X4545753Y-22447888D02*
X4545753Y-22409793D01*
X4545753Y-22409793D02*
X4536229Y-22390746D01*
X4536229Y-22390746D02*
X4526705Y-22381222D01*
X4526705Y-22381222D02*
X4507658Y-22371698D01*
X4669563Y-22285984D02*
X4688610Y-22285984D01*
X4688610Y-22285984D02*
X4707658Y-22295508D01*
X4707658Y-22295508D02*
X4717182Y-22305031D01*
X4717182Y-22305031D02*
X4726705Y-22324079D01*
X4726705Y-22324079D02*
X4736229Y-22362174D01*
X4736229Y-22362174D02*
X4736229Y-22409793D01*
X4736229Y-22409793D02*
X4726705Y-22447888D01*
X4726705Y-22447888D02*
X4717182Y-22466936D01*
X4717182Y-22466936D02*
X4707658Y-22476460D01*
X4707658Y-22476460D02*
X4688610Y-22485984D01*
X4688610Y-22485984D02*
X4669563Y-22485984D01*
X4669563Y-22485984D02*
X4650515Y-22476460D01*
X4650515Y-22476460D02*
X4640991Y-22466936D01*
X4640991Y-22466936D02*
X4631467Y-22447888D01*
X4631467Y-22447888D02*
X4621944Y-22409793D01*
X4621944Y-22409793D02*
X4621944Y-22362174D01*
X4621944Y-22362174D02*
X4631467Y-22324079D01*
X4631467Y-22324079D02*
X4640991Y-22305031D01*
X4640991Y-22305031D02*
X4650515Y-22295508D01*
X4650515Y-22295508D02*
X4669563Y-22285984D01*
X4860039Y-22285984D02*
X4879086Y-22285984D01*
X4879086Y-22285984D02*
X4898134Y-22295508D01*
X4898134Y-22295508D02*
X4907658Y-22305031D01*
X4907658Y-22305031D02*
X4917182Y-22324079D01*
X4917182Y-22324079D02*
X4926705Y-22362174D01*
X4926705Y-22362174D02*
X4926705Y-22409793D01*
X4926705Y-22409793D02*
X4917182Y-22447888D01*
X4917182Y-22447888D02*
X4907658Y-22466936D01*
X4907658Y-22466936D02*
X4898134Y-22476460D01*
X4898134Y-22476460D02*
X4879086Y-22485984D01*
X4879086Y-22485984D02*
X4860039Y-22485984D01*
X4860039Y-22485984D02*
X4840991Y-22476460D01*
X4840991Y-22476460D02*
X4831467Y-22466936D01*
X4831467Y-22466936D02*
X4821944Y-22447888D01*
X4821944Y-22447888D02*
X4812420Y-22409793D01*
X4812420Y-22409793D02*
X4812420Y-22362174D01*
X4812420Y-22362174D02*
X4821944Y-22324079D01*
X4821944Y-22324079D02*
X4831467Y-22305031D01*
X4831467Y-22305031D02*
X4840991Y-22295508D01*
X4840991Y-22295508D02*
X4860039Y-22285984D01*
X5012420Y-22485984D02*
X5012420Y-22352650D01*
X5012420Y-22371698D02*
X5021944Y-22362174D01*
X5021944Y-22362174D02*
X5040991Y-22352650D01*
X5040991Y-22352650D02*
X5069563Y-22352650D01*
X5069563Y-22352650D02*
X5088610Y-22362174D01*
X5088610Y-22362174D02*
X5098134Y-22381222D01*
X5098134Y-22381222D02*
X5098134Y-22485984D01*
X5098134Y-22381222D02*
X5107658Y-22362174D01*
X5107658Y-22362174D02*
X5126705Y-22352650D01*
X5126705Y-22352650D02*
X5155277Y-22352650D01*
X5155277Y-22352650D02*
X5174325Y-22362174D01*
X5174325Y-22362174D02*
X5183848Y-22381222D01*
X5183848Y-22381222D02*
X5183848Y-22485984D01*
X5279086Y-22485984D02*
X5279086Y-22352650D01*
X5279086Y-22371698D02*
X5288610Y-22362174D01*
X5288610Y-22362174D02*
X5307658Y-22352650D01*
X5307658Y-22352650D02*
X5336229Y-22352650D01*
X5336229Y-22352650D02*
X5355277Y-22362174D01*
X5355277Y-22362174D02*
X5364801Y-22381222D01*
X5364801Y-22381222D02*
X5364801Y-22485984D01*
X5364801Y-22381222D02*
X5374325Y-22362174D01*
X5374325Y-22362174D02*
X5393372Y-22352650D01*
X5393372Y-22352650D02*
X5421944Y-22352650D01*
X5421944Y-22352650D02*
X5440991Y-22362174D01*
X5440991Y-22362174D02*
X5450515Y-22381222D01*
X5450515Y-22381222D02*
X5450515Y-22485984D01*
X5840991Y-22276460D02*
X5669563Y-22533603D01*
X6098134Y-22285984D02*
X6117182Y-22285984D01*
X6117182Y-22285984D02*
X6136229Y-22295508D01*
X6136229Y-22295508D02*
X6145753Y-22305031D01*
X6145753Y-22305031D02*
X6155277Y-22324079D01*
X6155277Y-22324079D02*
X6164801Y-22362174D01*
X6164801Y-22362174D02*
X6164801Y-22409793D01*
X6164801Y-22409793D02*
X6155277Y-22447888D01*
X6155277Y-22447888D02*
X6145753Y-22466936D01*
X6145753Y-22466936D02*
X6136229Y-22476460D01*
X6136229Y-22476460D02*
X6117182Y-22485984D01*
X6117182Y-22485984D02*
X6098134Y-22485984D01*
X6098134Y-22485984D02*
X6079086Y-22476460D01*
X6079086Y-22476460D02*
X6069563Y-22466936D01*
X6069563Y-22466936D02*
X6060039Y-22447888D01*
X6060039Y-22447888D02*
X6050515Y-22409793D01*
X6050515Y-22409793D02*
X6050515Y-22362174D01*
X6050515Y-22362174D02*
X6060039Y-22324079D01*
X6060039Y-22324079D02*
X6069563Y-22305031D01*
X6069563Y-22305031D02*
X6079086Y-22295508D01*
X6079086Y-22295508D02*
X6098134Y-22285984D01*
X6250515Y-22466936D02*
X6260039Y-22476460D01*
X6260039Y-22476460D02*
X6250515Y-22485984D01*
X6250515Y-22485984D02*
X6240991Y-22476460D01*
X6240991Y-22476460D02*
X6250515Y-22466936D01*
X6250515Y-22466936D02*
X6250515Y-22485984D01*
X6383848Y-22285984D02*
X6402896Y-22285984D01*
X6402896Y-22285984D02*
X6421944Y-22295508D01*
X6421944Y-22295508D02*
X6431467Y-22305031D01*
X6431467Y-22305031D02*
X6440991Y-22324079D01*
X6440991Y-22324079D02*
X6450515Y-22362174D01*
X6450515Y-22362174D02*
X6450515Y-22409793D01*
X6450515Y-22409793D02*
X6440991Y-22447888D01*
X6440991Y-22447888D02*
X6431467Y-22466936D01*
X6431467Y-22466936D02*
X6421944Y-22476460D01*
X6421944Y-22476460D02*
X6402896Y-22485984D01*
X6402896Y-22485984D02*
X6383848Y-22485984D01*
X6383848Y-22485984D02*
X6364801Y-22476460D01*
X6364801Y-22476460D02*
X6355277Y-22466936D01*
X6355277Y-22466936D02*
X6345753Y-22447888D01*
X6345753Y-22447888D02*
X6336229Y-22409793D01*
X6336229Y-22409793D02*
X6336229Y-22362174D01*
X6336229Y-22362174D02*
X6345753Y-22324079D01*
X6345753Y-22324079D02*
X6355277Y-22305031D01*
X6355277Y-22305031D02*
X6364801Y-22295508D01*
X6364801Y-22295508D02*
X6383848Y-22285984D01*
X6517182Y-22285984D02*
X6640991Y-22285984D01*
X6640991Y-22285984D02*
X6574325Y-22362174D01*
X6574325Y-22362174D02*
X6602896Y-22362174D01*
X6602896Y-22362174D02*
X6621944Y-22371698D01*
X6621944Y-22371698D02*
X6631467Y-22381222D01*
X6631467Y-22381222D02*
X6640991Y-22400269D01*
X6640991Y-22400269D02*
X6640991Y-22447888D01*
X6640991Y-22447888D02*
X6631467Y-22466936D01*
X6631467Y-22466936D02*
X6621944Y-22476460D01*
X6621944Y-22476460D02*
X6602896Y-22485984D01*
X6602896Y-22485984D02*
X6545753Y-22485984D01*
X6545753Y-22485984D02*
X6526706Y-22476460D01*
X6526706Y-22476460D02*
X6517182Y-22466936D01*
X6831467Y-22485984D02*
X6717182Y-22485984D01*
X6774325Y-22485984D02*
X6774325Y-22285984D01*
X6774325Y-22285984D02*
X6755277Y-22314555D01*
X6755277Y-22314555D02*
X6736229Y-22333603D01*
X6736229Y-22333603D02*
X6717182Y-22343127D01*
X7012420Y-22285984D02*
X6917182Y-22285984D01*
X6917182Y-22285984D02*
X6907658Y-22381222D01*
X6907658Y-22381222D02*
X6917182Y-22371698D01*
X6917182Y-22371698D02*
X6936229Y-22362174D01*
X6936229Y-22362174D02*
X6983848Y-22362174D01*
X6983848Y-22362174D02*
X7002896Y-22371698D01*
X7002896Y-22371698D02*
X7012420Y-22381222D01*
X7012420Y-22381222D02*
X7021944Y-22400269D01*
X7021944Y-22400269D02*
X7021944Y-22447888D01*
X7021944Y-22447888D02*
X7012420Y-22466936D01*
X7012420Y-22466936D02*
X7002896Y-22476460D01*
X7002896Y-22476460D02*
X6983848Y-22485984D01*
X6983848Y-22485984D02*
X6936229Y-22485984D01*
X6936229Y-22485984D02*
X6917182Y-22476460D01*
X6917182Y-22476460D02*
X6907658Y-22466936D01*
X7098134Y-22285984D02*
X7098134Y-22324079D01*
X7174325Y-22285984D02*
X7174325Y-22324079D01*
X7469563Y-22562174D02*
X7460039Y-22552650D01*
X7460039Y-22552650D02*
X7440991Y-22524079D01*
X7440991Y-22524079D02*
X7431468Y-22505031D01*
X7431468Y-22505031D02*
X7421944Y-22476460D01*
X7421944Y-22476460D02*
X7412420Y-22428841D01*
X7412420Y-22428841D02*
X7412420Y-22390746D01*
X7412420Y-22390746D02*
X7421944Y-22343127D01*
X7421944Y-22343127D02*
X7431468Y-22314555D01*
X7431468Y-22314555D02*
X7440991Y-22295508D01*
X7440991Y-22295508D02*
X7460039Y-22266936D01*
X7460039Y-22266936D02*
X7469563Y-22257412D01*
X7631468Y-22352650D02*
X7631468Y-22485984D01*
X7583848Y-22276460D02*
X7536229Y-22419317D01*
X7536229Y-22419317D02*
X7660039Y-22419317D01*
X7888610Y-22485984D02*
X7888610Y-22285984D01*
X7974325Y-22485984D02*
X7974325Y-22381222D01*
X7974325Y-22381222D02*
X7964801Y-22362174D01*
X7964801Y-22362174D02*
X7945753Y-22352650D01*
X7945753Y-22352650D02*
X7917182Y-22352650D01*
X7917182Y-22352650D02*
X7898134Y-22362174D01*
X7898134Y-22362174D02*
X7888610Y-22371698D01*
X8098134Y-22485984D02*
X8079087Y-22476460D01*
X8079087Y-22476460D02*
X8069563Y-22466936D01*
X8069563Y-22466936D02*
X8060039Y-22447888D01*
X8060039Y-22447888D02*
X8060039Y-22390746D01*
X8060039Y-22390746D02*
X8069563Y-22371698D01*
X8069563Y-22371698D02*
X8079087Y-22362174D01*
X8079087Y-22362174D02*
X8098134Y-22352650D01*
X8098134Y-22352650D02*
X8126706Y-22352650D01*
X8126706Y-22352650D02*
X8145753Y-22362174D01*
X8145753Y-22362174D02*
X8155277Y-22371698D01*
X8155277Y-22371698D02*
X8164801Y-22390746D01*
X8164801Y-22390746D02*
X8164801Y-22447888D01*
X8164801Y-22447888D02*
X8155277Y-22466936D01*
X8155277Y-22466936D02*
X8145753Y-22476460D01*
X8145753Y-22476460D02*
X8126706Y-22485984D01*
X8126706Y-22485984D02*
X8098134Y-22485984D01*
X8279087Y-22485984D02*
X8260039Y-22476460D01*
X8260039Y-22476460D02*
X8250515Y-22457412D01*
X8250515Y-22457412D02*
X8250515Y-22285984D01*
X8431468Y-22476460D02*
X8412420Y-22485984D01*
X8412420Y-22485984D02*
X8374325Y-22485984D01*
X8374325Y-22485984D02*
X8355277Y-22476460D01*
X8355277Y-22476460D02*
X8345753Y-22457412D01*
X8345753Y-22457412D02*
X8345753Y-22381222D01*
X8345753Y-22381222D02*
X8355277Y-22362174D01*
X8355277Y-22362174D02*
X8374325Y-22352650D01*
X8374325Y-22352650D02*
X8412420Y-22352650D01*
X8412420Y-22352650D02*
X8431468Y-22362174D01*
X8431468Y-22362174D02*
X8440992Y-22381222D01*
X8440992Y-22381222D02*
X8440992Y-22400269D01*
X8440992Y-22400269D02*
X8345753Y-22419317D01*
X8517182Y-22476460D02*
X8536230Y-22485984D01*
X8536230Y-22485984D02*
X8574325Y-22485984D01*
X8574325Y-22485984D02*
X8593373Y-22476460D01*
X8593373Y-22476460D02*
X8602896Y-22457412D01*
X8602896Y-22457412D02*
X8602896Y-22447888D01*
X8602896Y-22447888D02*
X8593373Y-22428841D01*
X8593373Y-22428841D02*
X8574325Y-22419317D01*
X8574325Y-22419317D02*
X8545753Y-22419317D01*
X8545753Y-22419317D02*
X8526706Y-22409793D01*
X8526706Y-22409793D02*
X8517182Y-22390746D01*
X8517182Y-22390746D02*
X8517182Y-22381222D01*
X8517182Y-22381222D02*
X8526706Y-22362174D01*
X8526706Y-22362174D02*
X8545753Y-22352650D01*
X8545753Y-22352650D02*
X8574325Y-22352650D01*
X8574325Y-22352650D02*
X8593373Y-22362174D01*
X8669563Y-22562174D02*
X8679087Y-22552650D01*
X8679087Y-22552650D02*
X8698134Y-22524079D01*
X8698134Y-22524079D02*
X8707658Y-22505031D01*
X8707658Y-22505031D02*
X8717182Y-22476460D01*
X8717182Y-22476460D02*
X8726706Y-22428841D01*
X8726706Y-22428841D02*
X8726706Y-22390746D01*
X8726706Y-22390746D02*
X8717182Y-22343127D01*
X8717182Y-22343127D02*
X8707658Y-22314555D01*
X8707658Y-22314555D02*
X8698134Y-22295508D01*
X8698134Y-22295508D02*
X8679087Y-22266936D01*
X8679087Y-22266936D02*
X8669563Y-22257412D01*
D12*
X3894500Y-22658500D02*
G75*
G02*
X3794500Y-22658500I-50000J0D01*
G01*
X3794500Y-22658500D02*
G75*
G02*
X3894500Y-22658500I50000J0D01*
G01*
D11*
X4260039Y-22749984D02*
X4145753Y-22749984D01*
X4202896Y-22749984D02*
X4202896Y-22549984D01*
X4202896Y-22549984D02*
X4183848Y-22578555D01*
X4183848Y-22578555D02*
X4164801Y-22597603D01*
X4164801Y-22597603D02*
X4145753Y-22607127D01*
X4345753Y-22730936D02*
X4355277Y-22740460D01*
X4355277Y-22740460D02*
X4345753Y-22749984D01*
X4345753Y-22749984D02*
X4336229Y-22740460D01*
X4336229Y-22740460D02*
X4345753Y-22730936D01*
X4345753Y-22730936D02*
X4345753Y-22749984D01*
X4479086Y-22549984D02*
X4498134Y-22549984D01*
X4498134Y-22549984D02*
X4517182Y-22559508D01*
X4517182Y-22559508D02*
X4526705Y-22569031D01*
X4526705Y-22569031D02*
X4536229Y-22588079D01*
X4536229Y-22588079D02*
X4545753Y-22626174D01*
X4545753Y-22626174D02*
X4545753Y-22673793D01*
X4545753Y-22673793D02*
X4536229Y-22711888D01*
X4536229Y-22711888D02*
X4526705Y-22730936D01*
X4526705Y-22730936D02*
X4517182Y-22740460D01*
X4517182Y-22740460D02*
X4498134Y-22749984D01*
X4498134Y-22749984D02*
X4479086Y-22749984D01*
X4479086Y-22749984D02*
X4460039Y-22740460D01*
X4460039Y-22740460D02*
X4450515Y-22730936D01*
X4450515Y-22730936D02*
X4440991Y-22711888D01*
X4440991Y-22711888D02*
X4431467Y-22673793D01*
X4431467Y-22673793D02*
X4431467Y-22626174D01*
X4431467Y-22626174D02*
X4440991Y-22588079D01*
X4440991Y-22588079D02*
X4450515Y-22569031D01*
X4450515Y-22569031D02*
X4460039Y-22559508D01*
X4460039Y-22559508D02*
X4479086Y-22549984D01*
X4669563Y-22549984D02*
X4688610Y-22549984D01*
X4688610Y-22549984D02*
X4707658Y-22559508D01*
X4707658Y-22559508D02*
X4717182Y-22569031D01*
X4717182Y-22569031D02*
X4726705Y-22588079D01*
X4726705Y-22588079D02*
X4736229Y-22626174D01*
X4736229Y-22626174D02*
X4736229Y-22673793D01*
X4736229Y-22673793D02*
X4726705Y-22711888D01*
X4726705Y-22711888D02*
X4717182Y-22730936D01*
X4717182Y-22730936D02*
X4707658Y-22740460D01*
X4707658Y-22740460D02*
X4688610Y-22749984D01*
X4688610Y-22749984D02*
X4669563Y-22749984D01*
X4669563Y-22749984D02*
X4650515Y-22740460D01*
X4650515Y-22740460D02*
X4640991Y-22730936D01*
X4640991Y-22730936D02*
X4631467Y-22711888D01*
X4631467Y-22711888D02*
X4621944Y-22673793D01*
X4621944Y-22673793D02*
X4621944Y-22626174D01*
X4621944Y-22626174D02*
X4631467Y-22588079D01*
X4631467Y-22588079D02*
X4640991Y-22569031D01*
X4640991Y-22569031D02*
X4650515Y-22559508D01*
X4650515Y-22559508D02*
X4669563Y-22549984D01*
X4860039Y-22549984D02*
X4879086Y-22549984D01*
X4879086Y-22549984D02*
X4898134Y-22559508D01*
X4898134Y-22559508D02*
X4907658Y-22569031D01*
X4907658Y-22569031D02*
X4917182Y-22588079D01*
X4917182Y-22588079D02*
X4926705Y-22626174D01*
X4926705Y-22626174D02*
X4926705Y-22673793D01*
X4926705Y-22673793D02*
X4917182Y-22711888D01*
X4917182Y-22711888D02*
X4907658Y-22730936D01*
X4907658Y-22730936D02*
X4898134Y-22740460D01*
X4898134Y-22740460D02*
X4879086Y-22749984D01*
X4879086Y-22749984D02*
X4860039Y-22749984D01*
X4860039Y-22749984D02*
X4840991Y-22740460D01*
X4840991Y-22740460D02*
X4831467Y-22730936D01*
X4831467Y-22730936D02*
X4821944Y-22711888D01*
X4821944Y-22711888D02*
X4812420Y-22673793D01*
X4812420Y-22673793D02*
X4812420Y-22626174D01*
X4812420Y-22626174D02*
X4821944Y-22588079D01*
X4821944Y-22588079D02*
X4831467Y-22569031D01*
X4831467Y-22569031D02*
X4840991Y-22559508D01*
X4840991Y-22559508D02*
X4860039Y-22549984D01*
X5012420Y-22749984D02*
X5012420Y-22616650D01*
X5012420Y-22635698D02*
X5021944Y-22626174D01*
X5021944Y-22626174D02*
X5040991Y-22616650D01*
X5040991Y-22616650D02*
X5069563Y-22616650D01*
X5069563Y-22616650D02*
X5088610Y-22626174D01*
X5088610Y-22626174D02*
X5098134Y-22645222D01*
X5098134Y-22645222D02*
X5098134Y-22749984D01*
X5098134Y-22645222D02*
X5107658Y-22626174D01*
X5107658Y-22626174D02*
X5126705Y-22616650D01*
X5126705Y-22616650D02*
X5155277Y-22616650D01*
X5155277Y-22616650D02*
X5174325Y-22626174D01*
X5174325Y-22626174D02*
X5183848Y-22645222D01*
X5183848Y-22645222D02*
X5183848Y-22749984D01*
X5279086Y-22749984D02*
X5279086Y-22616650D01*
X5279086Y-22635698D02*
X5288610Y-22626174D01*
X5288610Y-22626174D02*
X5307658Y-22616650D01*
X5307658Y-22616650D02*
X5336229Y-22616650D01*
X5336229Y-22616650D02*
X5355277Y-22626174D01*
X5355277Y-22626174D02*
X5364801Y-22645222D01*
X5364801Y-22645222D02*
X5364801Y-22749984D01*
X5364801Y-22645222D02*
X5374325Y-22626174D01*
X5374325Y-22626174D02*
X5393372Y-22616650D01*
X5393372Y-22616650D02*
X5421944Y-22616650D01*
X5421944Y-22616650D02*
X5440991Y-22626174D01*
X5440991Y-22626174D02*
X5450515Y-22645222D01*
X5450515Y-22645222D02*
X5450515Y-22749984D01*
X5840991Y-22540460D02*
X5669563Y-22797603D01*
X6098134Y-22549984D02*
X6117182Y-22549984D01*
X6117182Y-22549984D02*
X6136229Y-22559508D01*
X6136229Y-22559508D02*
X6145753Y-22569031D01*
X6145753Y-22569031D02*
X6155277Y-22588079D01*
X6155277Y-22588079D02*
X6164801Y-22626174D01*
X6164801Y-22626174D02*
X6164801Y-22673793D01*
X6164801Y-22673793D02*
X6155277Y-22711888D01*
X6155277Y-22711888D02*
X6145753Y-22730936D01*
X6145753Y-22730936D02*
X6136229Y-22740460D01*
X6136229Y-22740460D02*
X6117182Y-22749984D01*
X6117182Y-22749984D02*
X6098134Y-22749984D01*
X6098134Y-22749984D02*
X6079086Y-22740460D01*
X6079086Y-22740460D02*
X6069563Y-22730936D01*
X6069563Y-22730936D02*
X6060039Y-22711888D01*
X6060039Y-22711888D02*
X6050515Y-22673793D01*
X6050515Y-22673793D02*
X6050515Y-22626174D01*
X6050515Y-22626174D02*
X6060039Y-22588079D01*
X6060039Y-22588079D02*
X6069563Y-22569031D01*
X6069563Y-22569031D02*
X6079086Y-22559508D01*
X6079086Y-22559508D02*
X6098134Y-22549984D01*
X6250515Y-22730936D02*
X6260039Y-22740460D01*
X6260039Y-22740460D02*
X6250515Y-22749984D01*
X6250515Y-22749984D02*
X6240991Y-22740460D01*
X6240991Y-22740460D02*
X6250515Y-22730936D01*
X6250515Y-22730936D02*
X6250515Y-22749984D01*
X6383848Y-22549984D02*
X6402896Y-22549984D01*
X6402896Y-22549984D02*
X6421944Y-22559508D01*
X6421944Y-22559508D02*
X6431467Y-22569031D01*
X6431467Y-22569031D02*
X6440991Y-22588079D01*
X6440991Y-22588079D02*
X6450515Y-22626174D01*
X6450515Y-22626174D02*
X6450515Y-22673793D01*
X6450515Y-22673793D02*
X6440991Y-22711888D01*
X6440991Y-22711888D02*
X6431467Y-22730936D01*
X6431467Y-22730936D02*
X6421944Y-22740460D01*
X6421944Y-22740460D02*
X6402896Y-22749984D01*
X6402896Y-22749984D02*
X6383848Y-22749984D01*
X6383848Y-22749984D02*
X6364801Y-22740460D01*
X6364801Y-22740460D02*
X6355277Y-22730936D01*
X6355277Y-22730936D02*
X6345753Y-22711888D01*
X6345753Y-22711888D02*
X6336229Y-22673793D01*
X6336229Y-22673793D02*
X6336229Y-22626174D01*
X6336229Y-22626174D02*
X6345753Y-22588079D01*
X6345753Y-22588079D02*
X6355277Y-22569031D01*
X6355277Y-22569031D02*
X6364801Y-22559508D01*
X6364801Y-22559508D02*
X6383848Y-22549984D01*
X6517182Y-22549984D02*
X6640991Y-22549984D01*
X6640991Y-22549984D02*
X6574325Y-22626174D01*
X6574325Y-22626174D02*
X6602896Y-22626174D01*
X6602896Y-22626174D02*
X6621944Y-22635698D01*
X6621944Y-22635698D02*
X6631467Y-22645222D01*
X6631467Y-22645222D02*
X6640991Y-22664269D01*
X6640991Y-22664269D02*
X6640991Y-22711888D01*
X6640991Y-22711888D02*
X6631467Y-22730936D01*
X6631467Y-22730936D02*
X6621944Y-22740460D01*
X6621944Y-22740460D02*
X6602896Y-22749984D01*
X6602896Y-22749984D02*
X6545753Y-22749984D01*
X6545753Y-22749984D02*
X6526706Y-22740460D01*
X6526706Y-22740460D02*
X6517182Y-22730936D01*
X6736229Y-22749984D02*
X6774325Y-22749984D01*
X6774325Y-22749984D02*
X6793372Y-22740460D01*
X6793372Y-22740460D02*
X6802896Y-22730936D01*
X6802896Y-22730936D02*
X6821944Y-22702365D01*
X6821944Y-22702365D02*
X6831467Y-22664269D01*
X6831467Y-22664269D02*
X6831467Y-22588079D01*
X6831467Y-22588079D02*
X6821944Y-22569031D01*
X6821944Y-22569031D02*
X6812420Y-22559508D01*
X6812420Y-22559508D02*
X6793372Y-22549984D01*
X6793372Y-22549984D02*
X6755277Y-22549984D01*
X6755277Y-22549984D02*
X6736229Y-22559508D01*
X6736229Y-22559508D02*
X6726706Y-22569031D01*
X6726706Y-22569031D02*
X6717182Y-22588079D01*
X6717182Y-22588079D02*
X6717182Y-22635698D01*
X6717182Y-22635698D02*
X6726706Y-22654746D01*
X6726706Y-22654746D02*
X6736229Y-22664269D01*
X6736229Y-22664269D02*
X6755277Y-22673793D01*
X6755277Y-22673793D02*
X6793372Y-22673793D01*
X6793372Y-22673793D02*
X6812420Y-22664269D01*
X6812420Y-22664269D02*
X6821944Y-22654746D01*
X6821944Y-22654746D02*
X6831467Y-22635698D01*
X7002896Y-22616650D02*
X7002896Y-22749984D01*
X6955277Y-22540460D02*
X6907658Y-22683317D01*
X6907658Y-22683317D02*
X7031467Y-22683317D01*
X7098134Y-22549984D02*
X7098134Y-22588079D01*
X7174325Y-22549984D02*
X7174325Y-22588079D01*
X7469563Y-22826174D02*
X7460039Y-22816650D01*
X7460039Y-22816650D02*
X7440991Y-22788079D01*
X7440991Y-22788079D02*
X7431468Y-22769031D01*
X7431468Y-22769031D02*
X7421944Y-22740460D01*
X7421944Y-22740460D02*
X7412420Y-22692841D01*
X7412420Y-22692841D02*
X7412420Y-22654746D01*
X7412420Y-22654746D02*
X7421944Y-22607127D01*
X7421944Y-22607127D02*
X7431468Y-22578555D01*
X7431468Y-22578555D02*
X7440991Y-22559508D01*
X7440991Y-22559508D02*
X7460039Y-22530936D01*
X7460039Y-22530936D02*
X7469563Y-22521412D01*
X7536229Y-22569031D02*
X7545753Y-22559508D01*
X7545753Y-22559508D02*
X7564801Y-22549984D01*
X7564801Y-22549984D02*
X7612420Y-22549984D01*
X7612420Y-22549984D02*
X7631468Y-22559508D01*
X7631468Y-22559508D02*
X7640991Y-22569031D01*
X7640991Y-22569031D02*
X7650515Y-22588079D01*
X7650515Y-22588079D02*
X7650515Y-22607127D01*
X7650515Y-22607127D02*
X7640991Y-22635698D01*
X7640991Y-22635698D02*
X7526706Y-22749984D01*
X7526706Y-22749984D02*
X7650515Y-22749984D01*
X7774325Y-22549984D02*
X7793372Y-22549984D01*
X7793372Y-22549984D02*
X7812420Y-22559508D01*
X7812420Y-22559508D02*
X7821944Y-22569031D01*
X7821944Y-22569031D02*
X7831468Y-22588079D01*
X7831468Y-22588079D02*
X7840991Y-22626174D01*
X7840991Y-22626174D02*
X7840991Y-22673793D01*
X7840991Y-22673793D02*
X7831468Y-22711888D01*
X7831468Y-22711888D02*
X7821944Y-22730936D01*
X7821944Y-22730936D02*
X7812420Y-22740460D01*
X7812420Y-22740460D02*
X7793372Y-22749984D01*
X7793372Y-22749984D02*
X7774325Y-22749984D01*
X7774325Y-22749984D02*
X7755277Y-22740460D01*
X7755277Y-22740460D02*
X7745753Y-22730936D01*
X7745753Y-22730936D02*
X7736229Y-22711888D01*
X7736229Y-22711888D02*
X7726706Y-22673793D01*
X7726706Y-22673793D02*
X7726706Y-22626174D01*
X7726706Y-22626174D02*
X7736229Y-22588079D01*
X7736229Y-22588079D02*
X7745753Y-22569031D01*
X7745753Y-22569031D02*
X7755277Y-22559508D01*
X7755277Y-22559508D02*
X7774325Y-22549984D01*
X8079087Y-22749984D02*
X8079087Y-22549984D01*
X8164801Y-22749984D02*
X8164801Y-22645222D01*
X8164801Y-22645222D02*
X8155277Y-22626174D01*
X8155277Y-22626174D02*
X8136230Y-22616650D01*
X8136230Y-22616650D02*
X8107658Y-22616650D01*
X8107658Y-22616650D02*
X8088610Y-22626174D01*
X8088610Y-22626174D02*
X8079087Y-22635698D01*
X8288610Y-22749984D02*
X8269563Y-22740460D01*
X8269563Y-22740460D02*
X8260039Y-22730936D01*
X8260039Y-22730936D02*
X8250515Y-22711888D01*
X8250515Y-22711888D02*
X8250515Y-22654746D01*
X8250515Y-22654746D02*
X8260039Y-22635698D01*
X8260039Y-22635698D02*
X8269563Y-22626174D01*
X8269563Y-22626174D02*
X8288610Y-22616650D01*
X8288610Y-22616650D02*
X8317182Y-22616650D01*
X8317182Y-22616650D02*
X8336230Y-22626174D01*
X8336230Y-22626174D02*
X8345753Y-22635698D01*
X8345753Y-22635698D02*
X8355277Y-22654746D01*
X8355277Y-22654746D02*
X8355277Y-22711888D01*
X8355277Y-22711888D02*
X8345753Y-22730936D01*
X8345753Y-22730936D02*
X8336230Y-22740460D01*
X8336230Y-22740460D02*
X8317182Y-22749984D01*
X8317182Y-22749984D02*
X8288610Y-22749984D01*
X8469563Y-22749984D02*
X8450515Y-22740460D01*
X8450515Y-22740460D02*
X8440992Y-22721412D01*
X8440992Y-22721412D02*
X8440992Y-22549984D01*
X8621944Y-22740460D02*
X8602896Y-22749984D01*
X8602896Y-22749984D02*
X8564801Y-22749984D01*
X8564801Y-22749984D02*
X8545753Y-22740460D01*
X8545753Y-22740460D02*
X8536230Y-22721412D01*
X8536230Y-22721412D02*
X8536230Y-22645222D01*
X8536230Y-22645222D02*
X8545753Y-22626174D01*
X8545753Y-22626174D02*
X8564801Y-22616650D01*
X8564801Y-22616650D02*
X8602896Y-22616650D01*
X8602896Y-22616650D02*
X8621944Y-22626174D01*
X8621944Y-22626174D02*
X8631468Y-22645222D01*
X8631468Y-22645222D02*
X8631468Y-22664269D01*
X8631468Y-22664269D02*
X8536230Y-22683317D01*
X8707658Y-22740460D02*
X8726706Y-22749984D01*
X8726706Y-22749984D02*
X8764801Y-22749984D01*
X8764801Y-22749984D02*
X8783849Y-22740460D01*
X8783849Y-22740460D02*
X8793373Y-22721412D01*
X8793373Y-22721412D02*
X8793373Y-22711888D01*
X8793373Y-22711888D02*
X8783849Y-22692841D01*
X8783849Y-22692841D02*
X8764801Y-22683317D01*
X8764801Y-22683317D02*
X8736230Y-22683317D01*
X8736230Y-22683317D02*
X8717182Y-22673793D01*
X8717182Y-22673793D02*
X8707658Y-22654746D01*
X8707658Y-22654746D02*
X8707658Y-22645222D01*
X8707658Y-22645222D02*
X8717182Y-22626174D01*
X8717182Y-22626174D02*
X8736230Y-22616650D01*
X8736230Y-22616650D02*
X8764801Y-22616650D01*
X8764801Y-22616650D02*
X8783849Y-22626174D01*
X8860039Y-22826174D02*
X8869563Y-22816650D01*
X8869563Y-22816650D02*
X8888611Y-22788079D01*
X8888611Y-22788079D02*
X8898134Y-22769031D01*
X8898134Y-22769031D02*
X8907658Y-22740460D01*
X8907658Y-22740460D02*
X8917182Y-22692841D01*
X8917182Y-22692841D02*
X8917182Y-22654746D01*
X8917182Y-22654746D02*
X8907658Y-22607127D01*
X8907658Y-22607127D02*
X8898134Y-22578555D01*
X8898134Y-22578555D02*
X8888611Y-22559508D01*
X8888611Y-22559508D02*
X8869563Y-22530936D01*
X8869563Y-22530936D02*
X8860039Y-22521412D01*
M02*
