%TF.GenerationSoftware,KiCad,Pcbnew,8.0.6*%
%TF.CreationDate,2024-12-16T09:55:53+00:00*%
%TF.ProjectId,StepperAdapterMount,53746570-7065-4724-9164-61707465724d,RevA*%
%TF.SameCoordinates,Original*%
%TF.FileFunction,Legend,Bot*%
%TF.FilePolarity,Positive*%
%FSLAX46Y46*%
G04 Gerber Fmt 4.6, Leading zero omitted, Abs format (unit mm)*
G04 Created by KiCad (PCBNEW 8.0.6) date 2024-12-16 09:55:53*
%MOMM*%
%LPD*%
G01*
G04 APERTURE LIST*
%ADD10C,0.150000*%
%ADD11C,0.120000*%
G04 APERTURE END LIST*
D10*
X49463333Y-211894819D02*
X49463333Y-212609104D01*
X49463333Y-212609104D02*
X49510952Y-212751961D01*
X49510952Y-212751961D02*
X49606190Y-212847200D01*
X49606190Y-212847200D02*
X49749047Y-212894819D01*
X49749047Y-212894819D02*
X49844285Y-212894819D01*
X48558571Y-212228152D02*
X48558571Y-212894819D01*
X48796666Y-211847200D02*
X49034761Y-212561485D01*
X49034761Y-212561485D02*
X48415714Y-212561485D01*
X62163333Y-201734819D02*
X62163333Y-202449104D01*
X62163333Y-202449104D02*
X62210952Y-202591961D01*
X62210952Y-202591961D02*
X62306190Y-202687200D01*
X62306190Y-202687200D02*
X62449047Y-202734819D01*
X62449047Y-202734819D02*
X62544285Y-202734819D01*
X61163333Y-202734819D02*
X61734761Y-202734819D01*
X61449047Y-202734819D02*
X61449047Y-201734819D01*
X61449047Y-201734819D02*
X61544285Y-201877676D01*
X61544285Y-201877676D02*
X61639523Y-201972914D01*
X61639523Y-201972914D02*
X61734761Y-202020533D01*
X62163333Y-211894819D02*
X62163333Y-212609104D01*
X62163333Y-212609104D02*
X62210952Y-212751961D01*
X62210952Y-212751961D02*
X62306190Y-212847200D01*
X62306190Y-212847200D02*
X62449047Y-212894819D01*
X62449047Y-212894819D02*
X62544285Y-212894819D01*
X61734761Y-211990057D02*
X61687142Y-211942438D01*
X61687142Y-211942438D02*
X61591904Y-211894819D01*
X61591904Y-211894819D02*
X61353809Y-211894819D01*
X61353809Y-211894819D02*
X61258571Y-211942438D01*
X61258571Y-211942438D02*
X61210952Y-211990057D01*
X61210952Y-211990057D02*
X61163333Y-212085295D01*
X61163333Y-212085295D02*
X61163333Y-212180533D01*
X61163333Y-212180533D02*
X61210952Y-212323390D01*
X61210952Y-212323390D02*
X61782380Y-212894819D01*
X61782380Y-212894819D02*
X61163333Y-212894819D01*
X49463333Y-201734819D02*
X49463333Y-202449104D01*
X49463333Y-202449104D02*
X49510952Y-202591961D01*
X49510952Y-202591961D02*
X49606190Y-202687200D01*
X49606190Y-202687200D02*
X49749047Y-202734819D01*
X49749047Y-202734819D02*
X49844285Y-202734819D01*
X49082380Y-201734819D02*
X48463333Y-201734819D01*
X48463333Y-201734819D02*
X48796666Y-202115771D01*
X48796666Y-202115771D02*
X48653809Y-202115771D01*
X48653809Y-202115771D02*
X48558571Y-202163390D01*
X48558571Y-202163390D02*
X48510952Y-202211009D01*
X48510952Y-202211009D02*
X48463333Y-202306247D01*
X48463333Y-202306247D02*
X48463333Y-202544342D01*
X48463333Y-202544342D02*
X48510952Y-202639580D01*
X48510952Y-202639580D02*
X48558571Y-202687200D01*
X48558571Y-202687200D02*
X48653809Y-202734819D01*
X48653809Y-202734819D02*
X48939523Y-202734819D01*
X48939523Y-202734819D02*
X49034761Y-202687200D01*
X49034761Y-202687200D02*
X49082380Y-202639580D01*
D11*
%TO.C,J4*%
X50460000Y-214980000D02*
X50460000Y-216310000D01*
X50460000Y-216310000D02*
X49130000Y-216310000D01*
X40180000Y-216310000D02*
X47860000Y-216310000D01*
X47860000Y-213650000D02*
X47860000Y-216310000D01*
X40180000Y-213650000D02*
X40180000Y-216310000D01*
X40180000Y-213650000D02*
X47860000Y-213650000D01*
%TO.C,J1*%
X63160000Y-199740000D02*
X63160000Y-201070000D01*
X63160000Y-201070000D02*
X61830000Y-201070000D01*
X52880000Y-201070000D02*
X60560000Y-201070000D01*
X60560000Y-198410000D02*
X60560000Y-201070000D01*
X52880000Y-198410000D02*
X52880000Y-201070000D01*
X52880000Y-198410000D02*
X60560000Y-198410000D01*
%TO.C,J2*%
X63160000Y-214980000D02*
X63160000Y-216310000D01*
X63160000Y-216310000D02*
X61830000Y-216310000D01*
X52880000Y-216310000D02*
X60560000Y-216310000D01*
X60560000Y-213650000D02*
X60560000Y-216310000D01*
X52880000Y-213650000D02*
X52880000Y-216310000D01*
X52880000Y-213650000D02*
X60560000Y-213650000D01*
%TO.C,J3*%
X50460000Y-199740000D02*
X50460000Y-201070000D01*
X50460000Y-201070000D02*
X49130000Y-201070000D01*
X40180000Y-201070000D02*
X47860000Y-201070000D01*
X47860000Y-198410000D02*
X47860000Y-201070000D01*
X40180000Y-198410000D02*
X40180000Y-201070000D01*
X40180000Y-198410000D02*
X47860000Y-198410000D01*
%TD*%
M02*
