%TF.GenerationSoftware,KiCad,Pcbnew,8.0.6*%
%TF.CreationDate,2024-12-16T09:55:53+00:00*%
%TF.ProjectId,StepperAdapterMount,53746570-7065-4724-9164-61707465724d,RevA*%
%TF.SameCoordinates,Original*%
%TF.FileFunction,Legend,Top*%
%TF.FilePolarity,Positive*%
%FSLAX46Y46*%
G04 Gerber Fmt 4.6, Leading zero omitted, Abs format (unit mm)*
G04 Created by KiCad (PCBNEW 8.0.6) date 2024-12-16 09:55:53*
%MOMM*%
%LPD*%
G01*
G04 APERTURE LIST*
%ADD10C,0.150000*%
%ADD11C,0.153000*%
%ADD12C,0.100000*%
G04 APERTURE END LIST*
D10*
X54070180Y-206029922D02*
X53070180Y-206363255D01*
X53070180Y-206363255D02*
X54070180Y-206696588D01*
X53070180Y-207553731D02*
X53070180Y-206982303D01*
X53070180Y-207268017D02*
X54070180Y-207268017D01*
X54070180Y-207268017D02*
X53927323Y-207172779D01*
X53927323Y-207172779D02*
X53832085Y-207077541D01*
X53832085Y-207077541D02*
X53784466Y-206982303D01*
X53165419Y-207982303D02*
X53117800Y-208029922D01*
X53117800Y-208029922D02*
X53070180Y-207982303D01*
X53070180Y-207982303D02*
X53117800Y-207934684D01*
X53117800Y-207934684D02*
X53165419Y-207982303D01*
X53165419Y-207982303D02*
X53070180Y-207982303D01*
X53070180Y-208982302D02*
X53070180Y-208410874D01*
X53070180Y-208696588D02*
X54070180Y-208696588D01*
X54070180Y-208696588D02*
X53927323Y-208601350D01*
X53927323Y-208601350D02*
X53832085Y-208506112D01*
X53832085Y-208506112D02*
X53784466Y-208410874D01*
D11*
X52178000Y-213456000D02*
X52178000Y-201264000D01*
X51162000Y-201264000D02*
X51162000Y-213456000D01*
X61486133Y-201863948D02*
X61962323Y-201863948D01*
X61390895Y-202149663D02*
X61724228Y-201149663D01*
X61724228Y-201149663D02*
X62057561Y-202149663D01*
X62390895Y-201768710D02*
X63152800Y-201768710D01*
X62771847Y-202149663D02*
X62771847Y-201387758D01*
X41547085Y-201625853D02*
X41689942Y-201673472D01*
X41689942Y-201673472D02*
X41737561Y-201721091D01*
X41737561Y-201721091D02*
X41785180Y-201816329D01*
X41785180Y-201816329D02*
X41785180Y-201959186D01*
X41785180Y-201959186D02*
X41737561Y-202054424D01*
X41737561Y-202054424D02*
X41689942Y-202102044D01*
X41689942Y-202102044D02*
X41594704Y-202149663D01*
X41594704Y-202149663D02*
X41213752Y-202149663D01*
X41213752Y-202149663D02*
X41213752Y-201149663D01*
X41213752Y-201149663D02*
X41547085Y-201149663D01*
X41547085Y-201149663D02*
X41642323Y-201197282D01*
X41642323Y-201197282D02*
X41689942Y-201244901D01*
X41689942Y-201244901D02*
X41737561Y-201340139D01*
X41737561Y-201340139D02*
X41737561Y-201435377D01*
X41737561Y-201435377D02*
X41689942Y-201530615D01*
X41689942Y-201530615D02*
X41642323Y-201578234D01*
X41642323Y-201578234D02*
X41547085Y-201625853D01*
X41547085Y-201625853D02*
X41213752Y-201625853D01*
X42213752Y-201768710D02*
X42975657Y-201768710D01*
X42594704Y-202149663D02*
X42594704Y-201387758D01*
X48786133Y-201863948D02*
X49262323Y-201863948D01*
X48690895Y-202149663D02*
X49024228Y-201149663D01*
X49024228Y-201149663D02*
X49357561Y-202149663D01*
X49690895Y-201768710D02*
X50452800Y-201768710D01*
X50071847Y-202149663D02*
X50071847Y-201387758D01*
X48786133Y-213293948D02*
X49262323Y-213293948D01*
X48690895Y-213579663D02*
X49024228Y-212579663D01*
X49024228Y-212579663D02*
X49357561Y-213579663D01*
X49690895Y-213198710D02*
X50452800Y-213198710D01*
X61486133Y-213293948D02*
X61962323Y-213293948D01*
X61390895Y-213579663D02*
X61724228Y-212579663D01*
X61724228Y-212579663D02*
X62057561Y-213579663D01*
X62390895Y-213198710D02*
X63152800Y-213198710D01*
X54247085Y-201625853D02*
X54389942Y-201673472D01*
X54389942Y-201673472D02*
X54437561Y-201721091D01*
X54437561Y-201721091D02*
X54485180Y-201816329D01*
X54485180Y-201816329D02*
X54485180Y-201959186D01*
X54485180Y-201959186D02*
X54437561Y-202054424D01*
X54437561Y-202054424D02*
X54389942Y-202102044D01*
X54389942Y-202102044D02*
X54294704Y-202149663D01*
X54294704Y-202149663D02*
X53913752Y-202149663D01*
X53913752Y-202149663D02*
X53913752Y-201149663D01*
X53913752Y-201149663D02*
X54247085Y-201149663D01*
X54247085Y-201149663D02*
X54342323Y-201197282D01*
X54342323Y-201197282D02*
X54389942Y-201244901D01*
X54389942Y-201244901D02*
X54437561Y-201340139D01*
X54437561Y-201340139D02*
X54437561Y-201435377D01*
X54437561Y-201435377D02*
X54389942Y-201530615D01*
X54389942Y-201530615D02*
X54342323Y-201578234D01*
X54342323Y-201578234D02*
X54247085Y-201625853D01*
X54247085Y-201625853D02*
X53913752Y-201625853D01*
X54913752Y-201768710D02*
X55675657Y-201768710D01*
X55294704Y-202149663D02*
X55294704Y-201387758D01*
X41547085Y-213055853D02*
X41689942Y-213103472D01*
X41689942Y-213103472D02*
X41737561Y-213151091D01*
X41737561Y-213151091D02*
X41785180Y-213246329D01*
X41785180Y-213246329D02*
X41785180Y-213389186D01*
X41785180Y-213389186D02*
X41737561Y-213484424D01*
X41737561Y-213484424D02*
X41689942Y-213532044D01*
X41689942Y-213532044D02*
X41594704Y-213579663D01*
X41594704Y-213579663D02*
X41213752Y-213579663D01*
X41213752Y-213579663D02*
X41213752Y-212579663D01*
X41213752Y-212579663D02*
X41547085Y-212579663D01*
X41547085Y-212579663D02*
X41642323Y-212627282D01*
X41642323Y-212627282D02*
X41689942Y-212674901D01*
X41689942Y-212674901D02*
X41737561Y-212770139D01*
X41737561Y-212770139D02*
X41737561Y-212865377D01*
X41737561Y-212865377D02*
X41689942Y-212960615D01*
X41689942Y-212960615D02*
X41642323Y-213008234D01*
X41642323Y-213008234D02*
X41547085Y-213055853D01*
X41547085Y-213055853D02*
X41213752Y-213055853D01*
X42213752Y-213198710D02*
X42975657Y-213198710D01*
X54247085Y-213055853D02*
X54389942Y-213103472D01*
X54389942Y-213103472D02*
X54437561Y-213151091D01*
X54437561Y-213151091D02*
X54485180Y-213246329D01*
X54485180Y-213246329D02*
X54485180Y-213389186D01*
X54485180Y-213389186D02*
X54437561Y-213484424D01*
X54437561Y-213484424D02*
X54389942Y-213532044D01*
X54389942Y-213532044D02*
X54294704Y-213579663D01*
X54294704Y-213579663D02*
X53913752Y-213579663D01*
X53913752Y-213579663D02*
X53913752Y-212579663D01*
X53913752Y-212579663D02*
X54247085Y-212579663D01*
X54247085Y-212579663D02*
X54342323Y-212627282D01*
X54342323Y-212627282D02*
X54389942Y-212674901D01*
X54389942Y-212674901D02*
X54437561Y-212770139D01*
X54437561Y-212770139D02*
X54437561Y-212865377D01*
X54437561Y-212865377D02*
X54389942Y-212960615D01*
X54389942Y-212960615D02*
X54342323Y-213008234D01*
X54342323Y-213008234D02*
X54247085Y-213055853D01*
X54247085Y-213055853D02*
X53913752Y-213055853D01*
X54913752Y-213198710D02*
X55675657Y-213198710D01*
D12*
X46412419Y-208169523D02*
X45412419Y-208169523D01*
X45412419Y-208169523D02*
X46126704Y-207836190D01*
X46126704Y-207836190D02*
X45412419Y-207502857D01*
X45412419Y-207502857D02*
X46412419Y-207502857D01*
X45507657Y-207074285D02*
X45460038Y-207026666D01*
X45460038Y-207026666D02*
X45412419Y-206931428D01*
X45412419Y-206931428D02*
X45412419Y-206693333D01*
X45412419Y-206693333D02*
X45460038Y-206598095D01*
X45460038Y-206598095D02*
X45507657Y-206550476D01*
X45507657Y-206550476D02*
X45602895Y-206502857D01*
X45602895Y-206502857D02*
X45698133Y-206502857D01*
X45698133Y-206502857D02*
X45840990Y-206550476D01*
X45840990Y-206550476D02*
X46412419Y-207121904D01*
X46412419Y-207121904D02*
X46412419Y-206502857D01*
X42051704Y-208253734D02*
X42051704Y-207777544D01*
X42337419Y-208348972D02*
X41337419Y-208015639D01*
X41337419Y-208015639D02*
X42337419Y-207682306D01*
X41956466Y-207348972D02*
X41956466Y-206587068D01*
X42051704Y-205103734D02*
X42051704Y-204627544D01*
X42337419Y-205198972D02*
X41337419Y-204865639D01*
X41337419Y-204865639D02*
X42337419Y-204532306D01*
X41956466Y-204198972D02*
X41956466Y-203437068D01*
X42337419Y-203818020D02*
X41575514Y-203818020D01*
X40913609Y-206322782D02*
X40961228Y-206179925D01*
X40961228Y-206179925D02*
X41008847Y-206132306D01*
X41008847Y-206132306D02*
X41104085Y-206084687D01*
X41104085Y-206084687D02*
X41246942Y-206084687D01*
X41246942Y-206084687D02*
X41342180Y-206132306D01*
X41342180Y-206132306D02*
X41389800Y-206179925D01*
X41389800Y-206179925D02*
X41437419Y-206275163D01*
X41437419Y-206275163D02*
X41437419Y-206656115D01*
X41437419Y-206656115D02*
X40437419Y-206656115D01*
X40437419Y-206656115D02*
X40437419Y-206322782D01*
X40437419Y-206322782D02*
X40485038Y-206227544D01*
X40485038Y-206227544D02*
X40532657Y-206179925D01*
X40532657Y-206179925D02*
X40627895Y-206132306D01*
X40627895Y-206132306D02*
X40723133Y-206132306D01*
X40723133Y-206132306D02*
X40818371Y-206179925D01*
X40818371Y-206179925D02*
X40865990Y-206227544D01*
X40865990Y-206227544D02*
X40913609Y-206322782D01*
X40913609Y-206322782D02*
X40913609Y-206656115D01*
X41056466Y-205656115D02*
X41056466Y-204894211D01*
X41437419Y-205275163D02*
X40675514Y-205275163D01*
X40913609Y-209172782D02*
X40961228Y-209029925D01*
X40961228Y-209029925D02*
X41008847Y-208982306D01*
X41008847Y-208982306D02*
X41104085Y-208934687D01*
X41104085Y-208934687D02*
X41246942Y-208934687D01*
X41246942Y-208934687D02*
X41342180Y-208982306D01*
X41342180Y-208982306D02*
X41389800Y-209029925D01*
X41389800Y-209029925D02*
X41437419Y-209125163D01*
X41437419Y-209125163D02*
X41437419Y-209506115D01*
X41437419Y-209506115D02*
X40437419Y-209506115D01*
X40437419Y-209506115D02*
X40437419Y-209172782D01*
X40437419Y-209172782D02*
X40485038Y-209077544D01*
X40485038Y-209077544D02*
X40532657Y-209029925D01*
X40532657Y-209029925D02*
X40627895Y-208982306D01*
X40627895Y-208982306D02*
X40723133Y-208982306D01*
X40723133Y-208982306D02*
X40818371Y-209029925D01*
X40818371Y-209029925D02*
X40865990Y-209077544D01*
X40865990Y-209077544D02*
X40913609Y-209172782D01*
X40913609Y-209172782D02*
X40913609Y-209506115D01*
X41056466Y-208506115D02*
X41056466Y-207744211D01*
X56927580Y-206600476D02*
X57927580Y-206600476D01*
X57927580Y-206600476D02*
X57213295Y-206933809D01*
X57213295Y-206933809D02*
X57927580Y-207267142D01*
X57927580Y-207267142D02*
X56927580Y-207267142D01*
X56927580Y-208267142D02*
X56927580Y-207695714D01*
X56927580Y-207981428D02*
X57927580Y-207981428D01*
X57927580Y-207981428D02*
X57784723Y-207886190D01*
X57784723Y-207886190D02*
X57689485Y-207790952D01*
X57689485Y-207790952D02*
X57641866Y-207695714D01*
X62003295Y-209666265D02*
X62003295Y-210142455D01*
X61717580Y-209571027D02*
X62717580Y-209904360D01*
X62717580Y-209904360D02*
X61717580Y-210237693D01*
X62098533Y-210571027D02*
X62098533Y-211332932D01*
X59091390Y-210047217D02*
X59043771Y-210190074D01*
X59043771Y-210190074D02*
X58996152Y-210237693D01*
X58996152Y-210237693D02*
X58900914Y-210285312D01*
X58900914Y-210285312D02*
X58758057Y-210285312D01*
X58758057Y-210285312D02*
X58662819Y-210237693D01*
X58662819Y-210237693D02*
X58615200Y-210190074D01*
X58615200Y-210190074D02*
X58567580Y-210094836D01*
X58567580Y-210094836D02*
X58567580Y-209713884D01*
X58567580Y-209713884D02*
X59567580Y-209713884D01*
X59567580Y-209713884D02*
X59567580Y-210047217D01*
X59567580Y-210047217D02*
X59519961Y-210142455D01*
X59519961Y-210142455D02*
X59472342Y-210190074D01*
X59472342Y-210190074D02*
X59377104Y-210237693D01*
X59377104Y-210237693D02*
X59281866Y-210237693D01*
X59281866Y-210237693D02*
X59186628Y-210190074D01*
X59186628Y-210190074D02*
X59139009Y-210142455D01*
X59139009Y-210142455D02*
X59091390Y-210047217D01*
X59091390Y-210047217D02*
X59091390Y-209713884D01*
X58948533Y-210713884D02*
X58948533Y-211475789D01*
X59091390Y-204147217D02*
X59043771Y-204290074D01*
X59043771Y-204290074D02*
X58996152Y-204337693D01*
X58996152Y-204337693D02*
X58900914Y-204385312D01*
X58900914Y-204385312D02*
X58758057Y-204385312D01*
X58758057Y-204385312D02*
X58662819Y-204337693D01*
X58662819Y-204337693D02*
X58615200Y-204290074D01*
X58615200Y-204290074D02*
X58567580Y-204194836D01*
X58567580Y-204194836D02*
X58567580Y-203813884D01*
X58567580Y-203813884D02*
X59567580Y-203813884D01*
X59567580Y-203813884D02*
X59567580Y-204147217D01*
X59567580Y-204147217D02*
X59519961Y-204242455D01*
X59519961Y-204242455D02*
X59472342Y-204290074D01*
X59472342Y-204290074D02*
X59377104Y-204337693D01*
X59377104Y-204337693D02*
X59281866Y-204337693D01*
X59281866Y-204337693D02*
X59186628Y-204290074D01*
X59186628Y-204290074D02*
X59139009Y-204242455D01*
X59139009Y-204242455D02*
X59091390Y-204147217D01*
X59091390Y-204147217D02*
X59091390Y-203813884D01*
X58948533Y-204813884D02*
X58948533Y-205575789D01*
X58567580Y-205194836D02*
X59329485Y-205194836D01*
X62003295Y-203766265D02*
X62003295Y-204242455D01*
X61717580Y-203671027D02*
X62717580Y-204004360D01*
X62717580Y-204004360D02*
X61717580Y-204337693D01*
X62098533Y-204671027D02*
X62098533Y-205432932D01*
X61717580Y-205051979D02*
X62479485Y-205051979D01*
%TO.C,M2*%
X48065000Y-207810000D02*
X48065000Y-206910000D01*
X48065000Y-207360000D02*
X47115000Y-207360000D01*
X38765000Y-207760000D02*
X38765000Y-206960000D01*
X38765000Y-207360000D02*
X40615000Y-207360000D01*
%TO.C,M1*%
X58490000Y-206910000D02*
X58490000Y-207860000D01*
X59040000Y-207410000D02*
X58490000Y-207410000D01*
X64790000Y-207060000D02*
X64790000Y-207760000D01*
X64790000Y-207410000D02*
X63390000Y-207410000D01*
%TD*%
M02*
